# xmcd
#
# Track frame offsets:
#	150
#	15842
#	33295
#	51042
#	65905
#	84082
#	108985
#	120527
#	136082
#	151995
#	165567
#
# Disc length: 2475 seconds
#
# Revision: 1
# Processed by: cddbd v1.5.2PL0 Copyright (c) Steve Scherf et al.
# Submitted via: audiograbber 1.83.01
#
DISCID=7909a90b
DTITLE=Joanne Myrol - Dance The Rodeo Round
DYEAR=1998
DGENRE=Country
TTITLE0=Rodeo Home
TTITLE1=Woman Without A Man
TTITLE2=Can´t Keep Your Secret
TTITLE3=Breack My Heart
TTITLE4=Dance The Rodeo Round
TTITLE5=Last Night
TTITLE6=The One You Used To Love
TTITLE7=Time And A Bottle Of Wine
TTITLE8=I Take It Back
TTITLE9=You And Me
TTITLE10=Water For My Horse
EXTD=
EXTT0=
EXTT1=
EXTT2=
EXTT3=
EXTT4=
EXTT5=
EXTT6=
EXTT7=
EXTT8=
EXTT9=
EXTT10=
PLAYORDER=
